{
  "accessors": [
    {
      "bufferView": 2,
      "componentType": 5126,
      "count": 20480,
      "max": [
        8.23792839050293,
        -6.059447288513184,
        3.5804717540740967
      ],
      "min": [
        -8.23792839050293,
        -8.204743385314941,
        0.7686046361923218
      ],
      "type": "VEC3"
    },
    {
      "bufferView": 2,
      "byteOffset": 245760,
      "componentType": 5126,
      "count": 20480,
      "max": [
        0.9991185665130615,
        0.9991183876991272,
        0.9982107877731323
      ],
      "min": [
        -0.9991188645362854,
        -0.9991187453269958,
        -0.99965500831604
      ],
      "type": "VEC3"
    },
    {
      "bufferView": 1,
      "componentType": 5126,
      "count": 20480,
      "max": [
        0.8750001192092896,
        1.0000001192092896
      ],
      "min": [
        0.125,
        0.0
      ],
      "type": "VEC2"
    },
    {
      "bufferView": 0,
      "componentType": 5125,
      "count": 30720,
      "type": "SCALAR"
    },
    {
      "bufferView": 2,
      "byteOffset": 491520,
      "componentType": 5126,
      "count": 20480,
      "max": [
        8.23792839050293,
        -6.059447288513184,
        3.5804715156555176
      ],
      "min": [
        -8.23792839050293,
        -8.204743385314941,
        0.7686046361923218
      ],
      "type": "VEC3"
    },
    {
      "bufferView": 2,
      "byteOffset": 737280,
      "componentType": 5126,
      "count": 20480,
      "max": [
        0.9991188645362854,
        0.999118447303772,
        0.9982109069824219
      ],
      "min": [
        -0.9991188645362854,
        -0.999118447303772,
        -0.99965500831604
      ],
      "type": "VEC3"
    },
    {
      "bufferView": 1,
      "byteOffset": 163840,
      "componentType": 5126,
      "count": 20480,
      "max": [
        0.8750001192092896,
        1.0000001192092896
      ],
      "min": [
        0.125,
        0.0
      ],
      "type": "VEC2"
    },
    {
      "bufferView": 0,
      "byteOffset": 122880,
      "componentType": 5125,
      "count": 30720,
      "type": "SCALAR"
    },
    {
      "bufferView": 2,
      "byteOffset": 983040,
      "componentType": 5126,
      "count": 32251,
      "max": [
        0.5055019855499268,
        0.9995290040969849,
        0.4656359851360321
      ],
      "min": [
        -0.5055019855499268,
        -0.9977279901504517,
        -0.46892300248146057
      ],
      "type": "VEC3"
    },
    {
      "bufferView": 2,
      "byteOffset": 1370052,
      "componentType": 5126,
      "count": 32251,
      "max": [
        0.9999619126319885,
        0.9999670386314392,
        0.9999707341194153
      ],
      "min": [
        -0.9999619126319885,
        -0.9999611973762512,
        -0.9999787211418152
      ],
      "type": "VEC3"
    },
    {
      "bufferView": 1,
      "byteOffset": 327680,
      "componentType": 5126,
      "count": 32251,
      "max": [
        0.94189453125,
        0.75390625
      ],
      "min": [
        0.0003631114959716797,
        0.00048828125
      ],
      "type": "VEC2"
    },
    {
      "bufferView": 0,
      "byteOffset": 245760,
      "componentType": 5125,
      "count": 172110,
      "type": "SCALAR"
    }
  ],
  "asset": {
    "extras": {
      "author": "daydev (https://sketchfab.com/daydev)",
      "license": "CC-BY-4.0 (http://creativecommons.org/licenses/by/4.0/)",
      "source": "https://sketchfab.com/3d-models/moo-deng-baby-pygmy-hippo-ee0e9e52de954c6cae9160d5f4e49003",
      "title": "Moo Deng: Baby Pygmy Hippo"
    },
    "generator": "Sketchfab-16.33.0",
    "version": "2.0"
  },
  "bufferViews": [
    {
      "buffer": 0,
      "byteLength": 934200,
      "name": "floatBufferViews",
      "target": 34963
    },
    {
      "buffer": 0,
      "byteLength": 585688,
      "byteOffset": 934200,
      "byteStride": 8,
      "name": "floatBufferViews",
      "target": 34962
    },
    {
      "buffer": 0,
      "byteLength": 1757064,
      "byteOffset": 1519888,
      "byteStride": 12,
      "name": "floatBufferViews",
      "target": 34962
    }
  ],
  "buffers": [
    {
      "byteLength": 3276952,
      "uri": "moodeng.bin"
    }
  ],
  "extensionsUsed": [
    "KHR_materials_specular"
  ],
  "images": [
    {
      "uri": "textures/Material_0_baseColor.jpeg"
    },
    {
      "uri": "textures/Material_0_metallicRoughness.png"
    }
  ],
  "materials": [
    {
      "doubleSided": true,
      "name": "Cube__0",
      "pbrMetallicRoughness": {
        "metallicFactor": 0.0,
        "roughnessFactor": 0.6
      }
    },
    {
      "doubleSided": true,
      "extensions": {
        "KHR_materials_specular": {
          "specularColorFactor": [
            1.0,
            1.0,
            1.0
          ],
          "specularFactor": 0.43695303102847743
        }
      },
      "name": "Material_0",
      "pbrMetallicRoughness": {
        "baseColorTexture": {
          "index": 0
        },
        "metallicFactor": 0.947085847751117,
        "metallicRoughnessTexture": {
          "index": 1
        }
      }
    }
  ],
  "meshes": [
    {
      "name": "Cube__0",
      "primitives": [
        {
          "attributes": {
            "NORMAL": 1,
            "POSITION": 0,
            "TEXCOORD_0": 2
          },
          "indices": 3,
          "material": 0,
          "mode": 4
        }
      ]
    },
    {
      "name": "Cube.001__0",
      "primitives": [
        {
          "attributes": {
            "NORMAL": 5,
            "POSITION": 4,
            "TEXCOORD_0": 6
          },
          "indices": 7,
          "material": 0,
          "mode": 4
        }
      ]
    },
    {
      "name": "Mesh_0_Material_0_0",
      "primitives": [
        {
          "attributes": {
            "NORMAL": 9,
            "POSITION": 8,
            "TEXCOORD_0": 10
          },
          "indices": 11,
          "material": 1,
          "mode": 4
        }
      ]
    }
  ],
  "nodes": [
    {
      "children": [
        1
      ],
      "matrix": [
        1.0,
        0.0,
        0.0,
        0.0,
        0.0,
        2.220446049250313e-16,
        -1.0,
        0.0,
        0.0,
        1.0,
        2.220446049250313e-16,
        0.0,
        0.0,
        0.0,
        0.0,
        1.0
      ],
      "name": "Sketchfab_model"
    },
    {
      "children": [
        2
      ],
      "matrix": [
        0.009999999776482582,
        0.0,
        0.0,
        0.0,
        0.0,
        0.0,
        0.009999999776482582,
        0.0,
        0.0,
        -0.009999999776482582,
        0.0,
        0.0,
        0.0,
        0.0,
        0.0,
        1.0
      ],
      "name": "fe153991e3fd43f4a3a205c47bc7d863.fbx"
    },
    {
      "children": [
        3,
        5,
        7
      ],
      "name": "RootNode"
    },
    {
      "children": [
        4
      ],
      "matrix": [
        4.095043182373047,
        0.0,
        0.0,
        0.0,
        0.0,
        -6.671672174111042e-07,
        -4.095043182372993,
        0.0,
        0.0,
        4.095043182372993,
        -6.671672174111042e-07,
        0.0,
        10.648979187011719,
        148.11761474609375,
        228.11219787597656,
        1.0
      ],
      "name": "Cube"
    },
    {
      "mesh": 0,
      "name": "Cube__0"
    },
    {
      "children": [
        6
      ],
      "matrix": [
        2.8865067958831787,
        0.0,
        0.0,
        0.0,
        0.0,
        -4.702716482544259e-07,
        -2.8865067958831405,
        0.0,
        0.0,
        2.8865067958831405,
        -4.702716482544259e-07,
        0.0,
        10.648979187011719,
        104.18306732177734,
        227.40130615234375,
        1.0
      ],
      "name": "Cube.001"
    },
    {
      "mesh": 1,
      "name": "Cube.001__0"
    },
    {
      "children": [
        8
      ],
      "matrix": [
        317.87933349609375,
        0.0,
        0.0,
        0.0,
        0.0,
        -5.1789116977806146e-05,
        -317.87933349608954,
        0.0,
        0.0,
        317.87933349608954,
        -5.1789116977806146e-05,
        0.0,
        9.798480987548828,
        152.8562774658203,
        2.0537592718028463e-05,
        1.0
      ],
      "name": "Mesh_0"
    },
    {
      "mesh": 2,
      "name": "Mesh_0_Material_0_0"
    }
  ],
  "samplers": [
    {
      "magFilter": 9729,
      "minFilter": 9987,
      "wrapS": 10497,
      "wrapT": 10497
    }
  ],
  "scene": 0,
  "scenes": [
    {
      "name": "Sketchfab_Scene",
      "nodes": [
        0
      ]
    }
  ],
  "textures": [
    {
      "sampler": 0,
      "source": 0
    },
    {
      "sampler": 0,
      "source": 1
    }
  ]
}
